<svg width="693" height="196" viewBox="0 0 693 196" fill="none" xmlns="http://www.w3.org/2000/svg">
<path d="M1.98584 59.6997C2.63428 53.5396 3.71501 48.9059 5.22803 45.7988C8.11898 39.8008 12.4284 35.5454 18.1562 33.0327C23.2627 30.7902 28.8149 29.6689 34.813 29.6689C44.8638 29.6689 52.1992 32.4248 56.8193 37.9365C59.6022 41.2057 61.2098 45.272 61.6421 50.1353L62.0068 53.9448C61.5475 54.3771 58.6431 54.5933 53.2935 54.5933L46.8496 54.5122H46.3228L42.7969 54.4312L41.8242 54.4717H41.0137C40.2572 54.4717 39.6763 53.3639 39.271 51.1484C38.8927 48.9329 38.2983 47.474 37.4878 46.7715C36.7043 46.042 35.7856 45.6772 34.7319 45.6772C33.6782 45.6772 32.7461 45.8664 31.9355 46.2446C31.152 46.6229 30.5036 47.0822 29.9902 47.6226C29.4769 48.1359 29.0446 48.8789 28.6934 49.8516C28.0449 51.5267 27.6532 53.3099 27.5181 55.2012C27.383 57.0654 27.3154 59.1593 27.3154 61.4829V62.4556L27.1533 66.5488C27.1533 74.0059 29.2607 77.8154 33.4756 77.9775C34.5563 77.9775 35.3128 77.7884 35.7451 77.4102C36.9069 76.3835 37.9201 74.3166 38.7847 71.2095C38.9738 70.561 39.2035 70.0342 39.4736 69.6289H41.0137L42.8779 69.6694H49.4434L51.4292 69.6289L55.2793 69.6694H57.6299L60.021 69.71H61.6421C61.9663 69.737 62.196 70.0207 62.3311 70.561L62.2095 71.8984C61.9663 75.0866 61.2233 77.9775 59.9805 80.5713C57.6839 85.3265 54.0635 88.8659 49.1191 91.1895C44.2018 93.486 38.7982 94.6343 32.9082 94.6343C22.6143 94.6343 14.887 91.5947 9.72656 85.5156C4.56608 79.4365 1.98584 70.8312 1.98584 59.6997ZM87.7822 61.1992C87.7822 61.2262 87.7687 61.2938 87.7417 61.4019V61.5234C87.6336 62.6582 87.5796 63.9281 87.5796 65.333C87.5796 66.738 87.6877 68.224 87.9038 69.791C88.147 71.3581 88.5252 72.9251 89.0386 74.4922C89.5789 76.0592 90.403 77.3291 91.5107 78.3018C92.6995 79.3285 94.0234 79.8418 95.4824 79.8418C96.9684 79.8418 98.2113 79.6392 99.2109 79.2339C100.238 78.8016 101.089 78.2612 101.764 77.6128C102.467 76.9644 103.075 76.0863 103.588 74.9785C104.885 72.0335 105.533 67.4674 105.533 61.2803C105.533 54.985 104.804 50.5811 103.345 48.0684C101.913 45.5286 99.7378 44.2588 96.8198 44.2588C95.3608 44.2588 94.0775 44.61 92.9697 45.3125C91.889 46.015 91.0649 46.7445 90.4976 47.501C89.9572 48.2575 89.3898 49.8651 88.7954 52.3237C88.228 54.7824 87.9443 57.0519 87.9443 59.1323L87.7822 61.1992ZM64.479 61.5234L64.5601 60.6318C64.8843 57.2546 65.3166 54.269 65.8569 51.6753C66.3973 49.0545 67.2754 46.6094 68.4912 44.3398C71.3822 39.3415 75.4079 35.5589 80.5684 32.9922C85.7559 30.3984 91.3351 29.1016 97.3062 29.1016C103.304 29.1016 108.748 30.3039 113.639 32.7085C116.557 34.1405 118.84 35.9507 120.488 38.1392C123.649 42.0838 125.729 45.7178 126.729 49.041C127.729 52.3643 128.229 56.2008 128.229 60.5508C128.229 70.2233 126.229 77.5993 122.23 82.6787L120.366 85.1509C117.854 88.0688 114.301 90.3249 109.708 91.9189C105.114 93.486 100.562 94.2965 96.0498 94.3506C88.3226 94.3506 81.9868 92.7295 77.0425 89.4873C68.6668 84.0566 64.479 74.7354 64.479 61.5234ZM195.707 63.6309L195.666 66.3462V81.3413L195.747 88.4741V90.5005L195.788 92.4053C195.625 92.6214 194.964 92.7295 193.802 92.7295H192.748L180.022 92.8916C174.619 92.8916 170.593 92.8781 167.945 92.8511C167.54 92.4188 166.068 88.4876 163.528 81.0576L155.787 60.5103L154.328 60.7129L154.288 64.8467V75.8296L154.45 86.8125V91.3516C154.45 92.5674 154.18 93.2023 153.639 93.2563C150.964 93.1753 148.411 93.1348 145.979 93.1348H144.723L138.604 93.2969H137.793L134.875 93.3779L134.753 93.2969C133.862 92.4593 133.416 91.8514 133.416 91.4731V90.7437L133.457 89.9331L133.659 74.1274C133.659 56.7817 133.821 43.6644 134.146 34.7754L134.227 31.4116C134.227 31.1685 143.534 30.9523 162.15 30.7632C162.312 30.8713 162.555 31.4657 162.879 32.5464V32.4248L163.123 33.2354C165.122 38.9632 167.554 45.5422 170.417 52.9722C173.281 60.3752 174.74 64.1577 174.794 64.3198L176.172 64.2388L176.334 31.209C176.334 30.9928 178.307 30.8848 182.251 30.8848L192.424 31.0874H195.423C195.612 40.0304 195.707 50.8783 195.707 63.6309ZM243.083 93.0132L237.977 92.8916H234.937C234.072 92.9997 232.195 93.0537 229.304 93.0537C226.44 93.0537 222.171 93.1213 216.497 93.2563C215.443 92.3107 214.457 89.5819 213.539 85.0698C212.62 80.5308 211.445 75.8836 210.013 71.1284C208.608 66.3462 207.73 63.3337 207.378 62.0908L206.163 57.7949C205.811 56.5521 205.203 54.4312 204.339 51.4321C201.61 42.1649 199.813 35.4238 198.949 31.209C198.949 30.9928 206.865 30.8848 222.698 30.8848C223.184 30.8848 223.562 31.0604 223.833 31.4116C225.967 44.0832 228.372 57.8895 231.046 72.8306L231.371 74.9785H232.992L233.356 72.8711C234.194 67.6025 235.788 59.1053 238.139 47.3794L239.111 42.7998C239.436 41.2598 240.179 37.4232 241.34 31.29C242.583 30.9658 249.459 30.8037 261.969 30.8037H263.792C264.117 30.9928 264.319 31.1685 264.4 31.3306L256.254 60.7939C255.66 62.9284 255.309 64.2928 255.201 64.8872L253.296 72.3442C250.243 85.34 248.054 92.2567 246.73 93.0942C246.001 93.0942 244.853 93.0672 243.286 93.0132H243.083ZM267.48 41.8271L267.278 31.1685C267.305 31.1685 267.399 31.209 267.562 31.29C288.095 30.9388 303.563 30.7497 313.965 30.7227C314.073 30.7767 314.154 30.8577 314.208 30.9658V42.3945C314.208 43.5023 314.181 44.4074 314.127 45.1099C313.992 45.5422 313.195 45.7583 311.736 45.7583H311.453C304.914 45.7583 298.106 45.6502 291.027 45.4341C291.027 45.6772 290.986 46.1095 290.905 46.731C290.851 47.3524 290.811 47.7982 290.784 48.0684L290.581 49.6084C290.446 50.6351 290.351 52.4183 290.297 54.958L302.861 54.6743C305.022 54.6203 306.589 54.5933 307.562 54.5933H308.21C309.859 54.5933 310.939 54.6473 311.453 54.7554C311.966 54.8364 312.223 55.1066 312.223 55.5659L312.182 55.8901V56.8628L312.385 67.2783L312.344 67.3188V67.2783C304.131 67.6836 297.565 67.8862 292.648 67.8862H290.743V77.6938L312.75 77.0049C313.965 77.0049 314.735 77.1805 315.06 77.5317C315.033 78.2342 315.019 79.2339 315.019 80.5308L315.303 91.5542C315.303 92.2297 315.006 92.6214 314.411 92.7295L300.956 92.6079C298.308 92.6079 293.04 92.7025 285.15 92.8916L278.504 93.0537C273.803 93.2158 270.317 93.2969 268.048 93.2969L267.926 93.2158H267.967C267.697 92.9456 267.44 92.689 267.197 92.4458V91.0273L267.44 47.7036L267.48 41.8271ZM338.444 31.0469L351.453 30.9253C354.209 30.9253 356.708 30.9793 358.951 31.0874C364.976 31.2495 369.555 32.668 372.689 35.3428C375.851 38.0176 377.431 41.7866 377.431 46.6499C377.431 50.0272 376.445 52.9181 374.473 55.3228C372.5 57.7004 369.623 59.7943 365.84 61.6045C371.838 63.4958 375.472 68.0889 376.742 75.3838C377.039 76.9779 377.269 78.8016 377.431 80.855C377.62 82.9084 377.769 84.2863 377.877 84.9888L378.282 87.0557C378.715 89.4873 379.093 91.2435 379.417 92.3242L379.255 92.4458C374.662 92.743 370.46 92.8916 366.651 92.8916C362.868 92.8916 359.518 92.8241 356.6 92.689H356.357C355.519 92.689 354.628 88.7038 353.682 80.7334L353.479 78.9907C353.371 76.0187 352.845 74.0194 351.899 72.9927C350.98 71.966 349.373 71.4526 347.076 71.4526L346.549 71.4932H344.401V83.8135L344.442 85.1104V92.5269C344.361 92.797 344.158 92.9591 343.834 93.0132C340.862 93.1213 336.661 93.1753 331.23 93.1753C325.826 93.1753 322.26 93.1888 320.531 93.2158L320.288 93.1348L320.207 93.1753C320.153 93.1753 320.071 93.1348 319.963 93.0537L320.044 89.4062L320.004 88.1904L320.166 71.3716V68.4131L320.207 65.3735L320.247 54.877L320.288 53.499L320.166 44.2993C320.166 44.2993 320.22 39.9899 320.328 31.3711C320.328 31.1549 321.098 31.0469 322.638 31.0469L325.232 31.0874H327.704L332.851 31.1279L338.444 31.0469ZM379.66 92.2026L379.458 92.3242V92.2432C379.458 92.2161 379.525 92.2026 379.66 92.2026ZM379.458 92.3242V92.3647C379.431 92.3647 379.417 92.3512 379.417 92.3242H379.458ZM353.439 44.2588C351.818 43.5563 349.656 43.2051 346.955 43.2051H344.604C344.307 43.6374 344.158 45.9204 344.158 50.0542C344.158 54.161 344.226 56.9168 344.361 58.3218C352.818 58.1326 357.046 55.2147 357.046 49.5679C357.046 47.1632 355.844 45.3936 353.439 44.2588ZM431.738 46.0015C431.738 46.8931 431.643 47.3389 431.454 47.3389C431.454 47.3389 426.564 47.2983 416.783 47.2173C416.729 49.8381 416.702 53.9313 416.702 59.4971C416.702 65.0628 416.716 68.9264 416.743 71.0879L416.905 92.5674C416.77 92.9456 416.5 93.1483 416.094 93.1753L407.543 93.0537L407.502 93.0942L404.828 93.0537H397.411C395.412 93.0537 393.912 93.0672 392.913 93.0942L392.224 92.4863C392.197 92.4593 392.021 92.2432 391.697 91.8379C391.697 89.4603 391.791 84.1782 391.98 75.9917L392.426 54.4312L392.345 53.418C392.156 50.7432 391.967 49.1626 391.778 48.6763C391.616 48.1629 391.278 47.8927 390.765 47.8657C390.251 47.8117 389.873 47.7847 389.63 47.7847L388.009 47.8657L377.958 47.7036C377.607 47.0011 377.431 45.4206 377.431 42.9619L377.512 39.3955V38.3013C377.485 33.9784 377.445 31.6683 377.391 31.3711C377.445 31.3711 377.553 31.3981 377.715 31.4521L429.306 31.0063C430.36 31.0063 431.022 31.0874 431.292 31.2495C431.562 31.3846 431.697 31.6548 431.697 32.0601V42.7593L431.738 46.0015ZM495.123 92.4458C495.096 92.797 494.353 92.9727 492.894 92.9727H489.165L486.652 93.0132H484.18L480.249 93.0537C476.331 93.0537 473.076 92.9591 470.482 92.77C470.401 92.743 470.306 92.5809 470.198 92.2837L469.996 91.4326C469.752 88.6497 469.118 85.9614 468.091 83.3677L450.745 83.5298C450.637 83.9891 450.286 85.3535 449.691 87.623C449.097 89.8926 448.651 91.6082 448.354 92.77C448.084 93.0402 446.8 93.1753 444.504 93.1753L443.491 93.1348H441.14L430.603 93.3779H429.387L428.252 93.4185H425.416C425.226 93.2293 425.024 92.9862 424.808 92.689C427.509 83.3407 431.17 71.7498 435.791 57.9165L436.723 55.0391H436.682L437.776 51.6753C438.128 50.5946 439.127 47.5955 440.775 42.6782C442.451 37.7609 443.491 34.5863 443.896 33.1543C444.328 31.7223 444.585 30.9793 444.666 30.9253H451.394L465.781 30.7227L469.671 30.9253L472.873 30.7227C474.494 30.7227 475.305 31.0469 475.305 31.6953C478.007 39.2334 481.613 50.0812 486.125 64.2388C490.638 78.3963 493.177 86.3532 493.745 88.1094L494.312 90.1357C494.501 90.8652 494.771 91.6353 495.123 92.4458ZM455 70.3179L456.662 70.3584L466.348 70.3179C465.943 67.1027 465.632 64.7386 465.416 63.2256L463.876 56.2954C462.255 49.1356 461.417 45.4881 461.363 45.353C461.309 45.2179 461.255 45.0964 461.201 44.9883C461.174 44.8532 461.147 44.7721 461.12 44.7451C461.093 44.6911 461.053 44.61 460.999 44.502C460.972 44.3939 460.931 44.3263 460.877 44.2993C460.85 44.2453 460.809 44.1777 460.755 44.0967C460.566 43.7725 460.174 43.4888 459.58 43.2456C458.851 43.4077 456.676 51.5402 453.055 67.6431L452.609 70.3179H455Z" fill="url(#paint0_linear_178_12)"/>
<path d="M5.62012 130.827L5.41748 120.168C5.4445 120.168 5.53906 120.209 5.70117 120.29C26.235 119.939 41.703 119.75 52.105 119.723C52.2131 119.777 52.2941 119.858 52.3481 119.966V131.395C52.3481 132.502 52.3211 133.407 52.2671 134.11C52.132 134.542 51.335 134.758 49.876 134.758H49.5923C43.0539 134.758 36.2453 134.65 29.1665 134.434C29.1665 134.677 29.126 135.11 29.0449 135.731C28.9909 136.352 28.9504 136.798 28.9233 137.068L28.7207 138.608C28.5856 139.635 28.491 141.418 28.437 143.958L41.0005 143.674C43.1619 143.62 44.729 143.593 45.7017 143.593H46.3501C47.9982 143.593 49.0789 143.647 49.5923 143.755C50.1056 143.836 50.3623 144.107 50.3623 144.566L50.3218 144.89V145.863L50.5244 156.278L50.4839 156.319V156.278C42.2703 156.684 35.7049 156.886 30.7876 156.886H28.8828V166.694L50.8892 166.005C52.105 166.005 52.875 166.181 53.1992 166.532C53.1722 167.234 53.1587 168.234 53.1587 169.531L53.4424 180.554C53.4424 181.23 53.1452 181.621 52.5508 181.729L39.0957 181.608C36.4479 181.608 31.1794 181.702 23.29 181.892L16.6436 182.054C11.9424 182.216 8.45703 182.297 6.1875 182.297L6.06592 182.216H6.10645C5.83626 181.946 5.57959 181.689 5.33643 181.446V180.027L5.57959 136.704L5.62012 130.827ZM79.5015 146.146C79.1772 153.793 79.0151 161.655 79.0151 169.733V181.811H76.0566L75.0435 181.77L60.6562 181.892C59.7376 181.892 59.2513 181.905 59.1973 181.932C59.1973 181.905 59.2513 181.675 59.3594 181.243V181L59.3999 180.838C59.2648 178.893 59.1973 176.528 59.1973 173.746L59.3594 128.477L59.3188 126.369V124.343L59.2378 120.533C59.2378 120.263 59.3864 119.979 59.6836 119.682H65.2358L68.478 119.642C76.0972 119.642 81.5413 119.75 84.8105 119.966C88.1068 120.182 90.4709 120.29 91.9028 120.29C92.6864 124.937 93.8481 131.097 95.3882 138.771L98.2656 153.279H99.6841L104.872 126.774C104.953 126.369 105.142 125.194 105.439 123.249C105.736 121.276 105.966 120.182 106.128 119.966H106.29L132.673 119.723L134.254 119.763H138.793C139.036 119.871 139.171 120.371 139.198 121.263L139.604 136.582C139.928 149.281 140.157 159.169 140.292 166.248C140.292 171.706 140.211 176.826 140.049 181.608C139.968 181.932 139.428 182.121 138.428 182.175L136.604 182.256C135.146 182.31 134.065 182.337 133.362 182.337H131.255C128.634 182.364 124.771 182.378 119.664 182.378C118.718 181.54 118.246 177.92 118.246 171.517L118.327 158.791V155.508C118.327 152.617 118.313 150.483 118.286 149.105L116.746 148.821C115.854 152.09 114.139 159.372 111.599 170.666L111.234 172.287C111.045 173.124 110.721 174.624 110.262 176.785C109.829 178.92 109.478 180.541 109.208 181.648C108.884 182.027 107.452 182.216 104.912 182.216H104.385L99.8462 182.094L97.374 182.135H95.4692L92.2676 182.175H91.1328C89.89 182.175 89.201 181.892 89.0659 181.324L89.1064 181.365L85.4185 165.275C85.3104 164.87 85.0672 163.992 84.689 162.641C84.3107 161.263 84.0946 160.115 84.0405 159.196L81.001 146.065L79.5015 146.146ZM197.436 146.146C197.112 153.793 196.95 161.655 196.95 169.733V181.811H193.991L192.978 181.77L178.591 181.892C177.672 181.892 177.186 181.905 177.132 181.932C177.132 181.905 177.186 181.675 177.294 181.243V181L177.334 180.838C177.199 178.893 177.132 176.528 177.132 173.746L177.294 128.477L177.253 126.369V124.343L177.172 120.533C177.172 120.263 177.321 119.979 177.618 119.682H183.17L186.413 119.642C194.032 119.642 199.476 119.75 202.745 119.966C206.041 120.182 208.405 120.29 209.837 120.29C210.621 124.937 211.783 131.097 213.323 138.771L216.2 153.279H217.619L222.806 126.774C222.887 126.369 223.076 125.194 223.374 123.249C223.671 121.276 223.9 120.182 224.062 119.966H224.225L250.608 119.723L252.188 119.763H256.728C256.971 119.871 257.106 120.371 257.133 121.263L257.538 136.582C257.862 149.281 258.092 159.169 258.227 166.248C258.227 171.706 258.146 176.826 257.984 181.608C257.903 181.932 257.362 182.121 256.363 182.175L254.539 182.256C253.08 182.31 251.999 182.337 251.297 182.337H249.189C246.569 182.364 242.705 182.378 237.599 182.378C236.653 181.54 236.18 177.92 236.18 171.517L236.261 158.791V155.508C236.261 152.617 236.248 150.483 236.221 149.105L234.681 148.821C233.789 152.09 232.073 159.372 229.534 170.666L229.169 172.287C228.98 173.124 228.656 174.624 228.196 176.785C227.764 178.92 227.413 180.541 227.143 181.648C226.818 182.027 225.386 182.216 222.847 182.216H222.32L217.781 182.094L215.309 182.135H213.404L210.202 182.175H209.067C207.825 182.175 207.136 181.892 207 181.324L207.041 181.365L203.353 165.275C203.245 164.87 203.002 163.992 202.624 162.641C202.245 161.263 202.029 160.115 201.975 159.196L198.936 146.065L197.436 146.146ZM264.955 176.664C264.955 171.179 265.103 167.369 265.4 165.235C265.4 153.482 265.562 141.634 265.887 129.692C265.806 127.99 265.765 126.275 265.765 124.545V123.208C265.657 122.37 265.603 121.627 265.603 120.979C265.603 120.331 265.671 119.912 265.806 119.723C271.588 120.074 276.653 120.25 281.003 120.25C285.353 120.25 288.339 120.168 289.96 120.006C290.014 120.087 290.055 120.317 290.082 120.695H289.798V135.366L290.082 168.355C290.082 168.599 290.122 168.801 290.203 168.963V169.044C290.284 169.207 290.325 169.382 290.325 169.571L290.649 181.365C290.514 181.662 290.271 181.892 289.919 182.054H288.542L265.846 182.418C265.576 182.283 265.225 182.081 264.792 181.811L264.833 181.122L264.955 176.664ZM360.842 152.631L360.802 155.346V170.341L360.883 177.474V179.5L360.923 181.405C360.761 181.621 360.099 181.729 358.938 181.729H357.884L345.158 181.892C339.755 181.892 335.729 181.878 333.081 181.851C332.676 181.419 331.203 177.488 328.664 170.058L320.923 149.51L319.464 149.713L319.423 153.847V164.83L319.585 175.812V180.352C319.585 181.567 319.315 182.202 318.775 182.256C316.1 182.175 313.547 182.135 311.115 182.135H309.859L303.739 182.297H302.929L300.011 182.378L299.889 182.297C298.998 181.459 298.552 180.851 298.552 180.473V179.744L298.592 178.933L298.795 163.127C298.795 145.782 298.957 132.664 299.281 123.775L299.362 120.412C299.362 120.168 308.67 119.952 327.286 119.763C327.448 119.871 327.691 120.466 328.015 121.546V121.425L328.258 122.235C330.258 127.963 332.689 134.542 335.553 141.972C338.417 149.375 339.876 153.158 339.93 153.32L341.308 153.239L341.47 120.209C341.47 119.993 343.443 119.885 347.387 119.885L357.56 120.087H360.559C360.748 129.03 360.842 139.878 360.842 152.631ZM427.591 149.591L427.469 160.979C427.469 164.465 426.902 167.545 425.767 170.22C424.659 172.895 423.187 175.056 421.35 176.704C416.351 181.243 408.962 183.513 399.181 183.513C389.401 183.513 381.795 181.135 376.364 176.38C374.446 174.732 372.825 172.597 371.501 169.977C370.204 167.329 369.421 164.343 369.15 161.02C369.285 149.726 369.353 139.284 369.353 129.692C369.218 129.692 369.15 128.274 369.15 125.437C369.15 122.6 369.272 120.844 369.515 120.168H370.366C374.338 119.952 379.755 119.844 386.618 119.844C387.104 119.952 387.982 120.02 389.252 120.047C390.549 120.074 391.44 120.114 391.927 120.168L393.183 120.331C393.372 125.68 393.494 133.043 393.548 142.418L393.305 158.71C393.305 164.114 394.872 166.815 398.006 166.815C399.33 166.815 400.438 166.235 401.329 165.073C402.248 163.911 402.734 162.601 402.788 161.142L402.95 160.736L403.072 147.079L403.112 145.863C403.112 139.595 403.031 133.542 402.869 127.707L402.788 124.748C402.734 123.559 402.707 122.492 402.707 121.546C402.707 120.601 402.856 119.952 403.153 119.601C413.582 119.601 421.444 119.642 426.74 119.723C426.929 119.912 427.172 120.087 427.469 120.25H427.429L427.875 120.533C427.658 125.64 427.55 132.205 427.55 140.229V147.2L427.591 149.591ZM484.613 135.001C484.613 135.893 484.518 136.339 484.329 136.339C484.329 136.339 479.439 136.298 469.658 136.217C469.604 138.838 469.577 142.931 469.577 148.497C469.577 154.063 469.591 157.926 469.618 160.088L469.78 181.567C469.645 181.946 469.375 182.148 468.969 182.175L460.418 182.054L460.377 182.094L457.703 182.054H450.286C448.287 182.054 446.787 182.067 445.788 182.094L445.099 181.486C445.072 181.459 444.896 181.243 444.572 180.838C444.572 178.46 444.666 173.178 444.855 164.992L445.301 143.431L445.22 142.418C445.031 139.743 444.842 138.163 444.653 137.676C444.491 137.163 444.153 136.893 443.64 136.866C443.126 136.812 442.748 136.785 442.505 136.785L440.884 136.866L430.833 136.704C430.482 136.001 430.306 134.421 430.306 131.962L430.387 128.396V127.301C430.36 122.978 430.32 120.668 430.266 120.371C430.32 120.371 430.428 120.398 430.59 120.452L482.181 120.006C483.235 120.006 483.897 120.087 484.167 120.25C484.437 120.385 484.572 120.655 484.572 121.06V131.759L484.613 135.001ZM507.024 150.199C507.024 150.226 507.011 150.294 506.984 150.402V150.523C506.876 151.658 506.822 152.928 506.822 154.333C506.822 155.738 506.93 157.224 507.146 158.791C507.389 160.358 507.767 161.925 508.281 163.492C508.821 165.059 509.645 166.329 510.753 167.302C511.942 168.328 513.266 168.842 514.725 168.842C516.211 168.842 517.453 168.639 518.453 168.234C519.48 167.802 520.331 167.261 521.006 166.613C521.709 165.964 522.317 165.086 522.83 163.979C524.127 161.034 524.775 156.467 524.775 150.28C524.775 143.985 524.046 139.581 522.587 137.068C521.155 134.529 518.98 133.259 516.062 133.259C514.603 133.259 513.32 133.61 512.212 134.312C511.131 135.015 510.307 135.744 509.74 136.501C509.199 137.257 508.632 138.865 508.038 141.324C507.47 143.782 507.187 146.052 507.187 148.132L507.024 150.199ZM483.721 150.523L483.802 149.632C484.126 146.255 484.559 143.269 485.099 140.675C485.639 138.055 486.518 135.609 487.733 133.34C490.624 128.341 494.65 124.559 499.811 121.992C504.998 119.398 510.577 118.102 516.548 118.102C522.546 118.102 527.991 119.304 532.881 121.708C535.799 123.14 538.082 124.951 539.73 127.139C542.891 131.084 544.972 134.718 545.971 138.041C546.971 141.364 547.471 145.201 547.471 149.551C547.471 159.223 545.471 166.599 541.473 171.679L539.608 174.151C537.096 177.069 533.543 179.325 528.95 180.919C524.357 182.486 519.804 183.297 515.292 183.351C507.565 183.351 501.229 181.729 496.285 178.487C487.909 173.057 483.721 163.735 483.721 150.523ZM551.523 164.262L572.962 163.897C573.503 163.897 573.949 164.357 574.3 165.275C574.678 166.194 575.043 166.924 575.394 167.464C576.232 168.761 577.61 169.409 579.528 169.409C581.473 169.409 583.04 168.963 584.229 168.072C585.418 167.153 586.012 165.978 586.012 164.546C586.012 163.114 585.647 162.141 584.918 161.628C584.188 161.088 583.391 160.574 582.527 160.088C581.662 159.575 580.379 159.183 578.677 158.913C577.002 158.642 576.083 158.48 575.921 158.426H576.002L573.692 157.818C572.206 157.548 570.963 157.251 569.963 156.927C563.506 155.198 558.832 153.023 555.941 150.402C553.077 147.781 551.645 144.255 551.645 139.824C551.645 136.609 552.239 133.718 553.428 131.151C554.617 128.585 556.171 126.491 558.089 124.87C563.628 120.195 571.274 117.858 581.027 117.858C588.782 117.858 594.874 119.263 599.305 122.073H599.265C602.102 124.127 604.047 126.153 605.101 128.152C606.154 130.125 606.816 132.57 607.086 135.488L606.033 136.542C598.927 136.812 592.632 136.947 587.147 136.947C585.499 136.947 584.513 136.46 584.188 135.488C584.053 135.083 583.905 134.677 583.743 134.272C583.364 133.299 582.149 132.813 580.095 132.813H579.933C578.339 132.813 576.975 133.191 575.84 133.948C574.705 134.677 574.124 135.393 574.097 136.096C574.097 136.798 574.246 137.379 574.543 137.838C574.867 138.298 575.205 138.662 575.556 138.933C575.907 139.203 576.448 139.486 577.177 139.784C577.907 140.054 578.447 140.243 578.798 140.351C579.177 140.432 579.757 140.581 580.541 140.797L581.959 141.162C582.527 141.324 584.175 141.729 586.904 142.377C589.66 143.026 591.956 143.647 593.793 144.242V144.201C599.548 146.146 603.466 148.578 605.546 151.496C607.654 154.387 608.708 157.764 608.708 161.628C608.708 171.922 602.561 178.595 590.268 181.648C586.701 182.54 582.892 183.175 578.839 183.553C573.868 183.553 568.95 182.824 564.087 181.365C559.224 179.906 555.968 177.528 554.32 174.232C553.212 172.638 552.469 171.179 552.091 169.855C551.713 168.504 551.402 166.626 551.159 164.222C551.24 164.249 551.361 164.262 551.523 164.262Z" fill="url(#paint1_linear_178_12)"/>
<defs>
<linearGradient id="paint0_linear_178_12" x1="11.7933" y1="84.2651" x2="351.585" y2="-201.878" gradientUnits="userSpaceOnUse">
<stop stop-color="#6D246E"/>
<stop offset="1" stop-color="#DB00DE"/>
</linearGradient>
<linearGradient id="paint1_linear_178_12" x1="12.7763" y1="180.074" x2="374.023" y2="-100.985" gradientUnits="userSpaceOnUse">
<stop stop-color="#6D246E"/>
<stop offset="1" stop-color="#DB00DE"/>
</linearGradient>
</defs>
</svg>
